<svg id="Layer_1" data-name="Layer 1" xmlns="http://www.w3.org/2000/svg" viewBox="0 0 249.84 269.52"><defs><style>.cls-1,.cls-3,.cls-4{fill:#fff;}.cls-2{fill:none;}.cls-3{opacity:0.8;}.cls-4{opacity:0.6;}</style></defs><path class="cls-1" d="M249.84,79.68q-5.24,3-10.46,6l-11,6.37a7.48,7.48,0,0,1-.74.39,1.93,1.93,0,0,1-2.7-.76c-1-1.56-1.85-3.17-2.78-4.75a2.64,2.64,0,0,1,.17-3c2.18-3.25,4.33-6.51,6.53-9.74,1.53-2.25,3.12-4.45,4.68-6.67a2.86,2.86,0,0,0,.54-1.21c-1.4.85-2.8,1.71-4.22,2.54L217.58,76a1.56,1.56,0,0,1-1.52.24,11,11,0,0,1-2.45-4.39c.22-.69.76-.86,1.19-1.11l12.73-7.39c2.49-1.44,5-2.89,7.46-4.32a8.18,8.18,0,0,1,1.06-.55,1.85,1.85,0,0,1,2.43.67c1.1,1.76,2.16,3.55,3.14,5.37a2.81,2.81,0,0,1-.42,3c-2.56,3.76-5.11,7.53-7.69,11.28-1.15,1.68-2.34,3.33-3.51,5-.11.15-.32.27-.14.59,2.88-1.69,5.73-3.4,8.62-5.06s5.63-3.43,8.58-4.88c1.45,1.1,2,2.63,2.78,4Z"/><path class="cls-1" d="M0,80.16A11,11,0,0,0,1.45,77.6C3.22,74.26,5,70.89,6.69,67.53c.24-.45.36-1,1-1.28a7.93,7.93,0,0,1,4.12,2.36C10.44,71.8,8.64,74.76,7.14,78c1.66,1,3.41,1.79,5.2,2.76l4.1-7.85a5.16,5.16,0,0,1,4.47,2.35l-4,7.84,5.88,3.08c1.77-3,3.19-6.23,4.95-9.35a6.29,6.29,0,0,1,4.4,2.15,1.55,1.55,0,0,1-.28,1.1Q28.6,86.3,25.35,92.55a2.39,2.39,0,0,1-1.77,1.5,3.47,3.47,0,0,1-1.53-.56Q11.65,88.11,1.24,82.72c-.46-.24-.78-.66-1.24-.88Z"/><path class="cls-1" d="M133.44,0A1.06,1.06,0,0,1,132,0Z"/><path class="cls-1" d="M47.87,23.53a11.68,11.68,0,0,1,6-3.26c.56,1,1.07,1.83,1.55,2.69q3.26,5.87,6.51,11.72a7.74,7.74,0,0,0,2.4,2.93,4.4,4.4,0,0,0,3.76.6,7.28,7.28,0,0,0,3.12-1.7,4.6,4.6,0,0,0,1.14-5.36,31.07,31.07,0,0,0-1.69-3.3L64,15.94a1.78,1.78,0,0,1-.38-1,8.62,8.62,0,0,1,5.62-3.18,1.76,1.76,0,0,1,.66.81q3.81,6.84,7.64,13.68a12.62,12.62,0,0,1,1.81,5.88,9.07,9.07,0,0,1-2.12,6.18,17.32,17.32,0,0,1-10.78,6.12,8.68,8.68,0,0,1-8.93-3.8,50.84,50.84,0,0,1-3.23-5.46c-2-3.51-3.91-7-5.86-10.56C48.25,24.32,48.1,24,47.87,23.53Z"/><path class="cls-1" d="M106.93,8a1.44,1.44,0,0,1-1.38,0,12,12,0,0,0-2.4-.69,7.81,7.81,0,0,0-5.32.87,5.85,5.85,0,0,0-3,4.67,13.82,13.82,0,0,0,2.07,9.27,6.26,6.26,0,0,0,7.18,2.73,9.51,9.51,0,0,0,4.52-2.55c.41-.4.79-.95,1.69-.69a10.31,10.31,0,0,1,1,4.6c0,.81-.7,1.32-1.3,1.79a14.42,14.42,0,0,1-6.19,2.68A15.14,15.14,0,0,1,97,30.61,11.5,11.5,0,0,1,89.41,24a20.25,20.25,0,0,1-2-8.53C87.35,8.55,91.07,3.81,97.84,2.15a13.53,13.53,0,0,1,6.51,0,2.76,2.76,0,0,1,2.2,2.1A7,7,0,0,1,106.93,8Z"/><path class="cls-1" d="M159.81,33c-1.37.54-4.54-.25-6.39-1.54a2.22,2.22,0,0,1,.11-1.6q2.88-9.66,5.74-19.33a1,1,0,0,0,0-.68l-6.54-2A6.76,6.76,0,0,1,153.94,3a1.89,1.89,0,0,1,1.38.06L173,8.3a3,3,0,0,1,1.3.53A6.59,6.59,0,0,1,173,13.77c-2.28-.31-4.46-1.34-6.88-1.85Q162.92,22.57,159.81,33Z"/><path class="cls-1" d="M179.33,42c-2.2-.27-5.35-2.08-6-3.4l12.68-24a11.56,11.56,0,0,1,6.15,3.15C187.86,25.92,183.57,33.94,179.33,42Z"/><path class="cls-1" d="M67.36,255.23a20.6,20.6,0,0,1-2.53-1.45l4.84-8.12-8.13-4.85-4.88,8.11-2.5-1.48,10.33-17.32,2.49,1.5c-1.45,2.46-2.87,4.84-4.31,7.28l8.12,4.85,4.31-7.18A16.36,16.36,0,0,1,77.65,238Z"/><path class="cls-1" d="M239.85,198.6,238,201.76l-13.12,2.46,8.69,5.1-1.38,2.37-17.41-10.16,1.38-2.38,8.14,4.74c.24-.52-.1-1-.27-1.43-1.2-3.29-2.44-6.57-3.66-9.85,0-.12-.06-.23-.12-.45l1.45-2.51c1.49,4,2.9,7.75,4.36,11.63Z"/><path class="cls-1" d="M243.18,189.9a17.19,17.19,0,0,1-2.68-.89c.72-.89,1.41-1.71,2.05-2.56a7.82,7.82,0,0,0,1.41-2.88,3.2,3.2,0,0,0-1.12-3.43,3.13,3.13,0,0,0-3.6-.14,45,45,0,0,0-3.83,3.06,11.62,11.62,0,0,1-3.61,2.05,5.44,5.44,0,0,1-5-1.8,5.73,5.73,0,0,1-1-4.64,14.72,14.72,0,0,1,2.68-5.58l2.47.9-1.7,2.24a6.47,6.47,0,0,0-1.14,2.23c-.46,1.75.24,3.69,2.29,3.88a6.41,6.41,0,0,0,3.49-1.87c1-.84,2-1.7,3-2.53a9,9,0,0,1,1.31-.83,5.41,5.41,0,0,1,8,4.35,9.72,9.72,0,0,1-1,5A19.85,19.85,0,0,1,243.18,189.9Z"/><path class="cls-1" d="M57.45,224.89l-1.68,1.9a5,5,0,0,1-.89-1.42,11.07,11.07,0,0,0-1.9-2.6,3.33,3.33,0,0,0-2.58-1,2.46,2.46,0,0,0-2.4,2.36,8.92,8.92,0,0,0,.62,3.15c.35,1.22.82,2.41,1.1,3.66a9.11,9.11,0,0,1,.23,2,5.38,5.38,0,0,1-7,5.27,9.67,9.67,0,0,1-4.74-3.3,22.06,22.06,0,0,1-2-2.87A15.06,15.06,0,0,1,38,230c.41.1.41.48.53.74a16.5,16.5,0,0,0,1.82,3.09,5.66,5.66,0,0,0,2.63,2,3.12,3.12,0,0,0,3.9-2.65,9.1,9.1,0,0,0-.45-2.93A25.73,25.73,0,0,1,45,224.63a5.07,5.07,0,0,1,5.69-5.35,6.19,6.19,0,0,1,3.15,1.34A15.34,15.34,0,0,1,57.45,224.89Z"/><path class="cls-1" d="M29.09,188.69l1.66,2.82-5.2,9.05c3.62.14,7.07.06,10.65.35l1.35,2.32c-4.68-.27-9.14-.13-13.62-.43l-7.41,4.3-1.44-2.42a3.62,3.62,0,0,1,1.27-.89q2.53-1.48,5.08-2.94a3.56,3.56,0,0,0,1.39-1.41c1.83-3.23,3.69-6.44,5.55-9.65C28.56,189.46,28.79,189.15,29.09,188.69Z"/><path class="cls-1" d="M108,265.77l8.84,1.13a4.16,4.16,0,0,1-.27,2.18l-11.75-1.48c.84-6.66,1.68-13.24,2.51-19.86a12.75,12.75,0,0,1,2.91.22C109.49,253.9,108.75,259.77,108,265.77Z"/><path class="cls-1" d="M144.79,26.59c-.54-1.83-1.11-3.66-1.66-5.48L138.59,6.28C138,4.5,137.48,2.72,137,1A3.35,3.35,0,0,0,135,.24c-.22,0-.49.08-.6-.24h-1A1.8,1.8,0,0,1,132,0h-3.6A3.69,3.69,0,0,0,127,2c-2.06,4.92-4.14,9.82-6.21,14.74-1.16,2.75-2.32,5.5-3.45,8.26a3.14,3.14,0,0,0-.4,2.18,1.68,1.68,0,0,0,1,.5,22.25,22.25,0,0,0,3.82.21,1.68,1.68,0,0,0,1.88-1.28c.53-1.5,1.16-3,1.76-4.47l10.69.53c.68,1.93,1,3.94,1.81,5.88a17.39,17.39,0,0,0,6.92.27A2.8,2.8,0,0,0,144.79,26.59ZM127.34,17c1.44-3.7,2.84-7.27,4.34-11.11,1.11,4,2.15,7.73,3.21,11.56C132.38,17.28,129.94,17.28,127.34,17Z"/><path class="cls-1" d="M134.22,248.72l-2.85.21c-.05.18-.1.32-.15.47-1.66,5.15-3.34,10.3-5,15.45a42,42,0,0,0-1.43,4.67h2.4a4.32,4.32,0,0,0,.71-1.61c.46-1.39.9-2.78,1.36-4.19,2.86-.22,5.63-.46,8.47-.52l2.53,5.3a19.33,19.33,0,0,0,3.1-.25C140.3,261.68,137.26,255.21,134.22,248.72Zm-4.1,12.55c.19-1,2.25-7.39,2.74-8.41,1.29,2.72,2.52,5.31,3.74,7.9A23.77,23.77,0,0,1,130.12,261.27Z"/><path class="cls-1" d="M219.91,37.82a19.93,19.93,0,0,0-6.36-5.9,12,12,0,0,0-12.83-.15,20.62,20.62,0,0,0-8.47,9.66A10.11,10.11,0,0,0,193.44,52a21.24,21.24,0,0,0,6.34,5.93,11.65,11.65,0,0,0,6.73,1.94,11.1,11.1,0,0,0,6.71-2,20.9,20.9,0,0,0,7.46-8.26A10.79,10.79,0,0,0,219.91,37.82Zm-5.22,7.66a16.3,16.3,0,0,1-6.7,7.29,5.62,5.62,0,0,1-3,.78,7.11,7.11,0,0,1-6.79-7,7.65,7.65,0,0,1,1.47-3.74,18.57,18.57,0,0,1,4.43-4.84,8.15,8.15,0,0,1,3.93-1.63,5,5,0,0,1,2.68.45A8.58,8.58,0,0,1,214.48,40,5.41,5.41,0,0,1,214.69,45.48Z"/><path class="cls-1" d="M48.09,48.41a18.88,18.88,0,0,0-7.81-8,10.85,10.85,0,0,0-11-.09,18.13,18.13,0,0,0-4.05,2.95c-2.39,2.3-4.54,4.83-6.87,7.18a2.75,2.75,0,0,0-.79,1.7,3.12,3.12,0,0,0,1,1.59q4.61,4.27,9.19,8.57c2.66,2.48,5.3,5,8,7.45,1.22,1.14,2,1.12,3.16-.06,1.43-1.51,2.86-3,4.27-4.54a29.76,29.76,0,0,0,4.58-6A11.13,11.13,0,0,0,48.09,48.41Zm-7,11.06c-.86,1.1-1.85,2.1-2.78,3.13-1-.77-11.74-10.78-13-12.18,1.05-1,2.05-2,3.08-2.91a6.75,6.75,0,0,1,8.68-.75,14.7,14.7,0,0,1,4.22,4A6.67,6.67,0,0,1,41.13,59.47Z"/><path class="cls-1" d="M201.16,239a13.16,13.16,0,0,0-5.59-8.73,8.21,8.21,0,0,0-8.82-.75c-3.38,1.67-5.52,4.27-5.59,8.21a13.57,13.57,0,0,0,.18,1.92,14.09,14.09,0,0,0,4.82,7.8,8.61,8.61,0,0,0,5.46,2.14,9.51,9.51,0,0,0,7-2.88A8.21,8.21,0,0,0,201.16,239Zm-11,7.55a7.62,7.62,0,0,1-1.52-1,13.33,13.33,0,0,1-4.68-7.83,5.39,5.39,0,0,1,.38-3,6,6,0,0,1,8.33-2.89,9.78,9.78,0,0,1,2.72,2.32,13.46,13.46,0,0,1,2.94,5.4,9.54,9.54,0,0,1,.19,1.79C198.84,244.94,194.12,248.55,190.16,246.52Z"/><path class="cls-1" d="M221.16,218.41a13.66,13.66,0,0,0-7.24-6.64,8.45,8.45,0,0,0-7.4.39,10.35,10.35,0,0,0-3.56,3.31,8.06,8.06,0,0,0-1.05,7.84,13.11,13.11,0,0,0,8.5,8,8.14,8.14,0,0,0,4.27.18c3.6-.73,7.38-4.57,7.41-8.91A9.08,9.08,0,0,0,221.16,218.41Zm-6,10.42a5.61,5.61,0,0,1-3.64-.22,12.74,12.74,0,0,1-6.88-6.33c-1.8-3.69.38-6.78,3-8.09a4.65,4.65,0,0,1,1.85-.42,6.47,6.47,0,0,1,2.7.45,12.9,12.9,0,0,1,6.71,6.34A5.91,5.91,0,0,1,215.11,228.83Z"/><path class="cls-1" d="M173.46,249.39c-.56,0-1.13,0-1.82,0,1.49-1.91,1.83-2.61,2-4a4.33,4.33,0,0,0-3.17-4.85,5.66,5.66,0,0,0-2.49,0c-2.43.55-4.6,1.75-7.05,2.63,2.56,6.3,5.06,12.45,7.59,18.7,2.25-.93,4.42-1.82,6.57-2.73a8,8,0,0,0,1.44-.85,4.39,4.39,0,0,0,1.79-3A5.08,5.08,0,0,0,173.46,249.39Zm-9-5.12a9.51,9.51,0,0,1,2.64-1c1.7-.38,2.84,0,3.5,1.26a3.3,3.3,0,0,1-.62,4.05,7.4,7.4,0,0,1-3.1,1.72C166.11,248.24,165.31,246.26,164.51,244.27ZM174,257.06a22.54,22.54,0,0,1-3.63,1.73c-.91-2.25-1.79-4.42-2.7-6.65a6.31,6.31,0,0,1,5.31-.58,3.25,3.25,0,0,1,2.26,2.84A2.6,2.6,0,0,1,174,257.06Z"/><path class="cls-1" d="M25.38,179.58a2.25,2.25,0,0,0-.09-.35,58.81,58.81,0,0,0-2.13-6.46c0-.1-.17-.15-.3-.27L4.05,179.08c.4,1.18.75,2.24,1.14,3.28a30.81,30.81,0,0,0,1.73,4.45A4.64,4.64,0,0,0,11,189.32a5.06,5.06,0,0,0,5.31-4.77,4.15,4.15,0,0,1,.32-1.6,10,10,0,0,0,1.74,1.38,4.85,4.85,0,0,0,5.42-.14C25.44,183.07,25.56,181.36,25.38,179.58Zm-11,3.89A3.56,3.56,0,0,1,12,186.06,2.65,2.65,0,0,1,8.76,185a12.94,12.94,0,0,1-1.61-3.91l6.72-2.36A6.55,6.55,0,0,1,14.4,183.47Zm7.24-1.58a3.27,3.27,0,0,1-3.51,0,5.19,5.19,0,0,1-2-2.61,2,2,0,0,1-.28-1.3l6-2.11a9.55,9.55,0,0,1,.93,3.3A2.58,2.58,0,0,1,21.64,181.89Z"/><path class="cls-1" d="M93.5,244.18a18.43,18.43,0,0,0-2.79-.9L76.85,259.83l2.56.87,3.87-4.55,8.09,2.69a57.89,57.89,0,0,0,.39,5.94l2.88.94C94.25,258.44,93.87,251.29,93.5,244.18Zm-8.73,10.13,5.9-7.05c.11,1.76.2,3.24.29,4.71s.16,2.85.26,4.47Z"/><path class="cls-2" d="M121.78,154v0l0,0A.64.64,0,0,0,121.78,154Z"/><path class="cls-3" d="M118.11,118.21a1.26,1.26,0,0,0,.69-.81,70.54,70.54,0,0,0,3.19-9.17c.8-3,.44-6,.17-8.94l-.24-2.42h0s-1.81-19.56-1.79-19.61h0a2.68,2.68,0,0,0-.87,1.13,16.48,16.48,0,0,0-1.49,4c-1,4-1.31,8.09-1.89,12.15-.42,2.91-.69,5.85-1,8.78s-.75,6-1.13,9.06a20.79,20.79,0,0,1,3,4.86C117.06,117.79,117.39,118.29,118.11,118.21Z"/><path class="cls-3" d="M107.55,105.64l.8.79-.2-1.13q-1-5.4-2-10.8c-.76-4.11-1.52-8.21-2.31-12.31A31.28,31.28,0,0,0,102.67,77a11.16,11.16,0,0,0-1.1-2.25,6.3,6.3,0,0,0-9.32-1.25,5,5,0,0,0-1.59,2.75,9.72,9.72,0,0,0,0,3.8c1,5.43,2.07,10.86,3.1,16.29h0l.08.46C98.86,96.6,105.26,103.12,107.55,105.64Z"/><path class="cls-3" d="M121.79,154v0a.64.64,0,0,1,0-.07l0,0a11.44,11.44,0,0,0-2.1-1.6,44.46,44.46,0,0,1-4.77-4.12,33.39,33.39,0,0,1-7.52-11.71c-1-2.86-2.06-5.71-3-8.59a59.51,59.51,0,0,0-4.77-10.47L98.75,116l-1.92-2.53v0l-.06-.07.3,1.45c.13.74.26,1.49.32,1.89h0a.52.52,0,0,1,0,.11,3.92,3.92,0,0,1-.18,2.71,1.37,1.37,0,0,1-1.78-.75c-.54-.93-1.07-1.86-1.57-2.82-.22-.4-.42-.81-.64-1.22l-6.36-11.53-7-13.35a34.75,34.75,0,0,0-2.43-4.39,5,5,0,0,0-4.76-2.42,6.13,6.13,0,0,0-2.66,1A5.72,5.72,0,0,0,67.51,91a9.34,9.34,0,0,0,.86,2c1.79,3.07,3.22,6.31,4.77,9.5q5.55,11.46,11.08,22.93a11.77,11.77,0,0,1,.81,1.86A2.12,2.12,0,0,1,85,129c-.91.27-.93.29-1.56-.17a31.68,31.68,0,0,1-3.33-2.91c-2.69-2.63-5.33-5.3-7.89-8.05l-6.61-7.1c-1.28-1.37-2.52-2.78-3.83-4.13-1.64-1.67-3.69-2-5.24-1.11-3.31,1.89-4.16,5.61-1.86,8.44,1.5,1.86,3.06,3.68,4.6,5.51q8,9.44,15.92,18.85a3,3,0,0,1,.63,1.27c1.18,4.63,2.36,9.25,3.59,13.87a48.32,48.32,0,0,0,2.91,8.7,35.85,35.85,0,0,0,10.24,12.34c1.47,1.17,3,2.24,4.49,3.33q2.58,17.64,5.13,35.17a39.77,39.77,0,0,0,8.61,1.35,45.79,45.79,0,0,0,7.76-.42,32.94,32.94,0,0,0,13-4.64,30,30,0,0,0,6.83-5.79c-.6-2.3-1.18-4.58-1.77-6.87l-1.08-4-.42-1.52a36.07,36.07,0,0,1-19.11-9.82Q118.87,167.6,121.79,154Z"/><path class="cls-4" d="M96.6,112.16l-2.67-15.3a.24.24,0,0,0,0-.11s-.59,0-1.3.14h0l-.37,0a11,11,0,0,0-1.33.24A5,5,0,0,0,87.09,103a4,4,0,0,0,.56,1.36,5.74,5.74,0,0,0,1.88,1.82,30.84,30.84,0,0,1,5.78,5.34c.56.71,1,1.33,1.46,1.87l-.27-1.33Z"/><path class="cls-4" d="M196,90.66a6.15,6.15,0,0,0-3.13-3.16,3.8,3.8,0,0,0-3.55.28A8.11,8.11,0,0,0,187,89.86c-2,2.28-4,4.58-6,6.86-1.56,1.76-3.16,3.48-4.72,5.25-2.72,3.08-5.55,6.08-8.52,8.92a4.09,4.09,0,0,1-2,1.24,1.11,1.11,0,0,1-.76-1.46,8.81,8.81,0,0,1,.56-1.69c1.21-2.64,2.4-5.29,3.59-7.94,2.76-6.14,5.49-12.28,8.28-18.4,1.13-2.5,2.2-5,3.53-7.44a6.79,6.79,0,0,0,.94-4.48c-.5-2.71-2.33-4.15-4.8-5a4.09,4.09,0,0,0-3.55.46,6.73,6.73,0,0,0-2.58,2.91q-2.25,4.56-4.46,9.13c-1.73,3.55-3.52,7.06-5.2,10.63-2,4.24-4.13,8.44-6.19,12.67a3.87,3.87,0,0,1-1.37,1.63,1.8,1.8,0,0,1-1.23,0,2.69,2.69,0,0,1-.44-2.65c.14-.67.23-1.34.34-2,.56-3.21,1-6.43,1.53-9.65.76-4.62,1.56-9.23,2.32-13.85.66-4,1.31-8.07,1.91-12.12a9.58,9.58,0,0,0,0-3.46,5.12,5.12,0,0,0-4.22-4c-2.6-.59-4.71,0-6.29,2A9.92,9.92,0,0,0,146.32,60a30.63,30.63,0,0,0-1.14,5.59c-.57,3.33-1,6.68-1.53,10-.59,3.77-1.25,7.52-1.84,11.28s-1.11,7.63-1.73,11.43c-.22,1.31-.63,2.45-2.13,2.4a2.62,2.62,0,0,1-1.45-2c-.16-.78-.2-1.58-.31-2.37-.34-2.43-.75-4.86-1.11-7.29-.44-3-.81-6-1.28-9q-.87-5.52-1.88-11a20.92,20.92,0,0,0-2.17-6.66,5.42,5.42,0,0,0-3.87-2.92,9.64,9.64,0,0,0-1.86.11,3.9,3.9,0,0,0-3.58,2.39,15.44,15.44,0,0,0-1.14,8.19c.11,1.4.3,2.81.5,4.21l.34,2.93c0-.06.11.16.14.11.6.12.85-.64,1.28-.89a4.73,4.73,0,0,1,7,2.56,14.8,14.8,0,0,1,.86,4.94c0,3.76-.56,7.48-.83,11.22-.26,3.46-.57,6.92-.86,10.38-.23,2.83-.5,5.65-.6,8.48-.09,2.43-.56,4.84-.23,7.29.56,4.13,2.19,7.92,3.84,11.69a4.63,4.63,0,0,0,1.07,1.82,2.19,2.19,0,0,0,2.41-1.28,50.64,50.64,0,0,1,7.7-11.1A53,53,0,0,1,151.5,114a8.92,8.92,0,0,1,4-1.45,6.85,6.85,0,0,1,5.64,1.4,3.72,3.72,0,0,1-.06,6c-.37.31-.74.61-1.12.9a32.12,32.12,0,0,0-8.1,9.23,77.46,77.46,0,0,0-7.33,17.8A40.26,40.26,0,0,1,141,157a38.88,38.88,0,0,1-10.52,11.67,1.94,1.94,0,0,0-1,2.3c1.78,6.44,3.08,10.93,4.86,17.36.12.18.65,2.54.69,2.76l.68.06a36.53,36.53,0,0,0,16.57-1.35c.15-2.29.42-4.42.57-6.57.09-1.23.09-2.47.25-3.69.41-3.19.52-6.42.85-9.62.27-2.65.38-5.32.54-8a1.72,1.72,0,0,1,.72-1.43c1.22-.83,2.36-1.77,3.5-2.7A42.93,42.93,0,0,0,165.3,151a32.09,32.09,0,0,0,5.76-12.72c1.26-5.37,2.54-10.73,3.77-16.11a3.73,3.73,0,0,1,.79-1.56c2.41-3,4.79-6,7.18-9q3.06-3.82,6.1-7.67c2.14-2.69,4.29-5.35,6.39-8.07A4.89,4.89,0,0,0,196,90.66Z"/><path class="cls-4" d="M113.73,112.39a69.13,69.13,0,0,0-5.38-6l0,.15,0,0v.15c.37,2.1,1,5.71,1,5.91a12,12,0,0,0,.75,3.22,1.92,1.92,0,0,0,2.24,1.22c1.07-1,1.18-2.24,1.29-3.54h0A4.55,4.55,0,0,0,113.73,112.39Z"/><path class="cls-1" d="M120.16,77.53c.2,2.34,1.77,19.34,1.77,19.34h0l.24,2.42c.27,3,.63,6-.17,8.94a70.54,70.54,0,0,1-3.19,9.17,1.26,1.26,0,0,1-.69.81c-.72.08-1-.42-1.35-1a20.79,20.79,0,0,0-3-4.86,4.51,4.51,0,0,1,0,1.3h0a4.7,4.7,0,0,1-1.28,3.43,1.92,1.92,0,0,1-2.24-1.22,12,12,0,0,1-.75-3.22c0-.2-.63-3.81-1-5.91v-.15l0,0,0-.15-.8-.79c-2.29-2.52-8.69-9-13.65-8.89a1,1,0,0,0,0,.11l2.57,15.19.27,1.33.06.07v0L98.75,116l.84,1.47A59.51,59.51,0,0,1,104.36,128c1,2.88,2,5.73,3,8.59a33.39,33.39,0,0,0,7.52,11.71,44.46,44.46,0,0,0,4.77,4.12,11.44,11.44,0,0,1,2.1,1.6q-2.92,13.64-5.85,27.29a36.07,36.07,0,0,0,19.11,9.82c0-.22-.57-2.58-.69-2.76-1.78-6.43-3.08-10.92-4.86-17.36a1.94,1.94,0,0,1,1-2.3A38.88,38.88,0,0,0,141,157a40.26,40.26,0,0,0,3.55-9.15,77.46,77.46,0,0,1,7.33-17.8,32.12,32.12,0,0,1,8.1-9.23c.38-.29.75-.59,1.12-.9a3.72,3.72,0,0,0,.06-6,6.85,6.85,0,0,0-5.64-1.4,8.92,8.92,0,0,0-4,1.45,53,53,0,0,0-9.54,8.53,50.64,50.64,0,0,0-7.7,11.1,2.19,2.19,0,0,1-2.41,1.28,4.63,4.63,0,0,1-1.07-1.82c-1.65-3.77-3.28-7.56-3.84-11.69-.33-2.45.14-4.86.23-7.29.1-2.83.37-5.65.6-8.48.29-3.46.6-6.92.86-10.38.27-3.74.82-7.46.83-11.22A14.8,14.8,0,0,0,128.6,79a4.68,4.68,0,0,0-5-3.23h0a6.15,6.15,0,0,0-3.25,1.28l-.21.17h0"/></svg>